# xmcd
#
# Track frame offsets:
#	150
#	18107
#	38187
#	58410
#	79872
#	102422
#	121690
#	142295
#	166425
#	193557
#	208155
#	228370
#	247917
#	272482
#	293685
#
# Disc length: 4153 seconds
#
# Revision: 1
# Processed by: cddbd v1.5PL3 Copyright (c) Steve Scherf et al.
# Submitted via: EasyCDDAExtractor 5.1.0
#
DISCID=d410370f
DTITLE=Jack Ingram and The Beat Up Ford Band - Live @ Gruene Hall Happy Happy..
DYEAR=2003
DGENRE=Country
TTITLE0=I Would
TTITLE1=Hey You
TTITLE2=How Many Days
TTITLE3=Work This Out
TTITLE4=Fool
TTITLE5=One Thing
TTITLE6=Only Daddy That'll Walk The Line
TTITLE7=Mustang Burn
TTITLE8=Barbie Doll
TTITLE9=Happy Happy Country Country
TTITLE10=Fine Tune
TTITLE11=What Makes You Say
TTITLE12=Biloxi
TTITLE13=Goodnight Moon
TTITLE14=Only Daddy That'll Walk The Line (Studio)
EXTD=
EXTT0=
EXTT1=
EXTT2=
EXTT3=
EXTT4=
EXTT5=
EXTT6=
EXTT7=
EXTT8=
EXTT9=
EXTT10=
EXTT11=
EXTT12=
EXTT13=
EXTT14=
PLAYORDER=
